<svg width="172" height="100" viewBox="0 0 172 100" fill="none" xmlns="http://www.w3.org/2000/svg">
<g clip-path="url(#clip0)">
<path d="M95.6103 2.58313C94.8425 2.58313 94.2187 3.21698 94.2187 3.99869C94.2187 4.49644 94.4714 4.9345 94.8528 5.1868C94.4909 6.45072 93.7634 8.29006 93.1042 8.67161C91.8523 9.39553 90.7177 8.30123 91.267 5.30301C91.9629 5.22534 92.5048 4.62442 92.5048 3.89553C92.5048 3.11318 91.8823 2.47937 91.1139 2.47937C90.3455 2.47937 89.7229 3.11322 89.7229 3.89553C89.7229 4.37837 89.9609 4.80402 90.3235 5.06002C89.9524 6.73284 89.4055 7.40081 88.739 7.30823C87.7319 7.1684 87.5476 5.31911 87.5317 2.7372C88.0371 2.52531 88.3917 2.01884 88.3917 1.42854C88.3917 0.646197 87.7691 0.0123901 87.0007 0.0123901C86.2329 0.0123901 85.6104 0.646237 85.6104 1.42854C85.6104 2.01888 85.9656 2.52531 86.4697 2.7372C86.4538 5.31915 86.2701 7.16844 85.2624 7.30827C84.5959 7.40085 84.049 6.73284 83.6786 5.06006C84.0417 4.80402 84.2785 4.37837 84.2785 3.89557C84.2785 3.11322 83.6559 2.47941 82.8881 2.47941C82.1191 2.47941 81.4965 3.11326 81.4965 3.89557C81.4965 4.62446 82.0385 5.22538 82.7343 5.30305C83.2837 8.30131 82.1496 9.39557 80.8984 8.67165C80.238 8.29006 79.5111 6.45072 79.1491 5.1868C79.5306 4.9345 79.7827 4.49644 79.7827 3.99869C79.7827 3.21698 79.1601 2.58313 78.3911 2.58313C77.6239 2.58313 77.0007 3.21698 77.0007 3.99869C77.0007 4.73876 77.5586 5.34524 78.269 5.40927L79.2743 12.3957H94.7277L95.7324 5.40927C96.4434 5.34524 97.0007 4.73876 97.0007 3.99869C97.0007 3.21698 96.3782 2.58313 95.6103 2.58313Z" fill="#F4D35E"/>
<path d="M95.6103 2.58313C94.8425 2.58313 94.2187 3.21698 94.2187 3.99869C94.2187 4.49644 94.4714 4.9345 94.8528 5.1868C94.4909 6.45072 93.7634 8.29006 93.1042 8.67161C91.8523 9.39553 90.7177 8.30123 91.267 5.30301C91.9629 5.22534 92.5048 4.62442 92.5048 3.89553C92.5048 3.11318 91.8823 2.47937 91.1139 2.47937C90.3455 2.47937 89.7229 3.11322 89.7229 3.89553C89.7229 4.37837 89.9609 4.80402 90.3235 5.06002C89.9524 6.73284 89.4055 7.40081 88.739 7.30823C87.7319 7.1684 87.5476 5.31911 87.5317 2.7372C88.0371 2.52531 88.3917 2.01884 88.3917 1.42854C88.3917 0.646197 87.7691 0.0123901 87.0007 0.0123901C86.2329 0.0123901 85.6104 0.646237 85.6104 1.42854C85.6104 2.01888 85.9656 2.52531 86.4697 2.7372C86.4538 5.31915 86.2701 7.16844 85.2624 7.30827C84.5959 7.40085 84.049 6.73284 83.6786 5.06006C84.0417 4.80402 84.2785 4.37837 84.2785 3.89557C84.2785 3.11322 83.6559 2.47941 82.8881 2.47941C82.1191 2.47941 81.4965 3.11326 81.4965 3.89557C81.4965 4.62446 82.0385 5.22538 82.7343 5.30305C83.2837 8.30131 82.1496 9.39557 80.8984 8.67165C80.238 8.29006 79.5111 6.45072 79.1491 5.1868C79.5306 4.9345 79.7827 4.49644 79.7827 3.99869C79.7827 3.21698 79.1601 2.58313 78.3911 2.58313C77.6239 2.58313 77.0007 3.21698 77.0007 3.99869C77.0007 4.73876 77.5586 5.34524 78.269 5.40927L79.2743 12.3957H94.7277L95.7324 5.40927C96.4434 5.34524 97.0007 4.73876 97.0007 3.99869C97.0007 3.21698 96.3782 2.58313 95.6103 2.58313Z" fill="url(#paint0_linear)"/>
<path d="M79.732 15.5772H87.0007H94.27L94.5446 13.6683H79.4574L79.732 15.5772Z" fill="#F4D35E"/>
<path d="M79.732 15.5772H87.0007H94.27L94.5446 13.6683H79.4574L79.732 15.5772Z" fill="url(#paint1_linear)"/>
</g>
<path fill-rule="evenodd" clip-rule="evenodd" d="M128.032 98.0359C130.585 98.4912 132.608 98.3091 133.967 97.4657C133.164 96.3147 131.481 95.5493 128.861 95.0821C126.241 94.6148 123.578 94.4502 120.738 94.5641C123.022 96.4446 125.479 97.5806 128.032 98.0359Z" fill="#F4D35E"/>
<path fill-rule="evenodd" clip-rule="evenodd" d="M128.032 98.0359C130.585 98.4912 132.608 98.3091 133.967 97.4657C133.164 96.3147 131.481 95.5493 128.861 95.0821C126.241 94.6148 123.578 94.4502 120.738 94.5641C123.022 96.4446 125.479 97.5806 128.032 98.0359Z" fill="url(#paint2_linear)"/>
<path fill-rule="evenodd" clip-rule="evenodd" d="M141.04 95.1603C143.601 95.0741 145.475 94.4778 146.53 93.3477C145.427 92.3756 143.623 91.9765 141.063 92.0627C138.502 92.1489 135.832 92.5257 133.176 93.2927C135.814 94.616 138.48 95.2465 141.04 95.1603Z" fill="#F4D35E"/>
<path fill-rule="evenodd" clip-rule="evenodd" d="M141.04 95.1603C143.601 95.0741 145.475 94.4778 146.53 93.3477C145.427 92.3756 143.623 91.9765 141.063 92.0627C138.502 92.1489 135.832 92.5257 133.176 93.2927C135.814 94.616 138.48 95.2465 141.04 95.1603Z" fill="url(#paint3_linear)"/>
<path fill-rule="evenodd" clip-rule="evenodd" d="M152.274 89.7196C154.753 89.2312 156.391 88.3601 157.254 87.1184C156.052 86.3612 154.15 86.1771 151.67 86.6655C149.191 87.1539 146.736 87.9568 144.306 89.0743C147.132 90.0433 149.794 90.208 152.274 89.7196Z" fill="#F4D35E"/>
<path fill-rule="evenodd" clip-rule="evenodd" d="M152.274 89.7196C154.753 89.2312 156.391 88.3601 157.254 87.1184C156.052 86.3612 154.15 86.1771 151.67 86.6655C149.191 87.1539 146.736 87.9568 144.306 89.0743C147.132 90.0433 149.794 90.208 152.274 89.7196Z" fill="url(#paint4_linear)"/>
<path fill-rule="evenodd" clip-rule="evenodd" d="M161.236 82.3229C163.454 81.2451 164.731 79.9995 165.134 78.5983C163.755 78.1198 161.923 78.4134 159.716 79.4156C157.498 80.4933 155.45 81.834 153.427 83.4892C156.426 83.7138 159.029 83.325 161.236 82.3229Z" fill="#F4D35E"/>
<path fill-rule="evenodd" clip-rule="evenodd" d="M161.236 82.3229C163.454 81.2451 164.731 79.9995 165.134 78.5983C163.755 78.1198 161.923 78.4134 159.716 79.4156C157.498 80.4933 155.45 81.834 153.427 83.4892C156.426 83.7138 159.029 83.325 161.236 82.3229Z" fill="url(#paint5_linear)"/>
<path fill-rule="evenodd" clip-rule="evenodd" d="M170.556 62.5836C171.728 60.6214 172.029 58.9692 171.549 57.4879C170.141 57.7021 168.829 58.7087 167.657 60.671C166.486 62.6332 165.562 64.7947 164.953 67.1673C167.528 65.9981 169.385 64.5459 170.556 62.5836Z" fill="#F4D35E"/>
<path fill-rule="evenodd" clip-rule="evenodd" d="M170.556 62.5836C171.728 60.6214 172.029 58.9692 171.549 57.4879C170.141 57.7021 168.829 58.7087 167.657 60.671C166.486 62.6332 165.562 64.7947 164.953 67.1673C167.528 65.9981 169.385 64.5459 170.556 62.5836Z" fill="url(#paint6_linear)"/>
<path fill-rule="evenodd" clip-rule="evenodd" d="M171.024 51.4238C171.601 49.2781 171.443 47.4664 170.527 46.1401C169.222 46.6052 168.27 47.9863 167.693 50.132C167.116 52.2777 166.853 54.6346 166.915 57.127C169.073 55.4958 170.446 53.5695 171.024 51.4238Z" fill="#F4D35E"/>
<path fill-rule="evenodd" clip-rule="evenodd" d="M171.024 51.4238C171.601 49.2781 171.443 47.4664 170.527 46.1401C169.222 46.6052 168.27 47.9863 167.693 50.132C167.116 52.2777 166.853 54.6346 166.915 57.127C169.073 55.4958 170.446 53.5695 171.024 51.4238Z" fill="url(#paint7_linear)"/>
<path fill-rule="evenodd" clip-rule="evenodd" d="M168.553 40.5927C168.525 38.3391 167.943 36.6069 166.726 35.4596C165.591 36.1876 165.032 37.7162 165.059 39.9697C165.086 42.2232 165.439 44.6123 166.127 47.0613C167.79 45.0316 168.58 42.8462 168.553 40.5927Z" fill="#F4D35E"/>
<path fill-rule="evenodd" clip-rule="evenodd" d="M168.553 40.5927C168.525 38.3391 167.943 36.6069 166.726 35.4596C165.591 36.1876 165.032 37.7162 165.059 39.9697C165.086 42.2232 165.439 44.6123 166.127 47.0613C167.79 45.0316 168.58 42.8462 168.553 40.5927Z" fill="url(#paint8_linear)"/>
<path fill-rule="evenodd" clip-rule="evenodd" d="M163.128 31.1736C162.553 28.8998 161.602 27.3346 160.152 26.3782C159.264 27.3054 159.108 28.9059 159.616 31.1677C160.192 33.4414 161.047 35.6874 162.372 38.0173C163.384 35.7166 163.636 33.4353 163.128 31.1736Z" fill="#F4D35E"/>
<path fill-rule="evenodd" clip-rule="evenodd" d="M163.128 31.1736C162.553 28.8998 161.602 27.3346 160.152 26.3782C159.264 27.3054 159.108 28.9059 159.616 31.1677C160.192 33.4414 161.047 35.6874 162.372 38.0173C163.384 35.7166 163.636 33.4353 163.128 31.1736Z" fill="url(#paint9_linear)"/>
<path fill-rule="evenodd" clip-rule="evenodd" d="M156.134 22.6375C155.056 20.5069 153.67 19.0967 152.033 18.4946C151.393 19.621 151.65 21.2177 152.795 23.3604C153.94 25.503 155.364 27.618 157.213 29.6535C157.575 27.0817 157.211 24.7682 156.134 22.6375Z" fill="#F4D35E"/>
<path fill-rule="evenodd" clip-rule="evenodd" d="M156.134 22.6375C155.056 20.5069 153.67 19.0967 152.033 18.4946C151.393 19.621 151.65 21.2177 152.795 23.3604C153.94 25.503 155.364 27.618 157.213 29.6535C157.575 27.0817 157.211 24.7682 156.134 22.6375Z" fill="url(#paint10_linear)"/>
<path fill-rule="evenodd" clip-rule="evenodd" d="M147.172 19.2638C145.036 17.7945 143.142 17.0664 141.41 17.143C141.576 18.4138 142.683 19.8534 144.752 21.3106C146.82 22.7678 149.256 24.0584 151.915 25.2339C150.889 22.7231 149.308 20.7331 147.172 19.2638Z" fill="#F4D35E"/>
<path fill-rule="evenodd" clip-rule="evenodd" d="M147.172 19.2638C145.036 17.7945 143.142 17.0664 141.41 17.143C141.576 18.4138 142.683 19.8534 144.752 21.3106C146.82 22.7678 149.256 24.0584 151.915 25.2339C150.889 22.7231 149.308 20.7331 147.172 19.2638Z" fill="url(#paint11_linear)"/>
<path fill-rule="evenodd" clip-rule="evenodd" d="M151.375 26.5965C149.387 25.5444 147.641 25.2329 146.222 25.5228C146.487 26.578 147.647 27.6377 149.634 28.6899C151.621 29.7421 153.852 30.5276 156.239 31.1858C155.016 29.1068 153.362 27.6487 151.375 26.5965Z" fill="#F4D35E"/>
<path fill-rule="evenodd" clip-rule="evenodd" d="M151.375 26.5965C149.387 25.5444 147.641 25.2329 146.222 25.5228C146.487 26.578 147.647 27.6377 149.634 28.6899C151.621 29.7421 153.852 30.5276 156.239 31.1858C155.016 29.1068 153.362 27.6487 151.375 26.5965Z" fill="url(#paint12_linear)"/>
<path fill-rule="evenodd" clip-rule="evenodd" d="M156.846 33.2326C155.103 31.9138 153.477 31.2361 152.034 31.2114C152.087 32.3063 152.945 33.5451 154.688 34.8639C156.431 36.1827 158.397 37.3861 160.653 38.4863C159.787 36.3159 158.578 34.6271 156.846 33.2326Z" fill="#F4D35E"/>
<path fill-rule="evenodd" clip-rule="evenodd" d="M156.846 33.2326C155.103 31.9138 153.477 31.2361 152.034 31.2114C152.087 32.3063 152.945 33.5451 154.688 34.8639C156.431 36.1827 158.397 37.3861 160.653 38.4863C159.787 36.3159 158.578 34.6271 156.846 33.2326Z" fill="url(#paint13_linear)"/>
<path fill-rule="evenodd" clip-rule="evenodd" d="M160.642 41.5082C159.143 39.9228 157.673 39.1177 156.117 38.9178C155.968 39.9768 156.604 41.3309 158.113 42.8407C159.612 44.4261 161.411 45.8325 163.423 47.1993C163.116 44.9735 162.141 43.0937 160.642 41.5082Z" fill="#F4D35E"/>
<path fill-rule="evenodd" clip-rule="evenodd" d="M160.642 41.5082C159.143 39.9228 157.673 39.1177 156.117 38.9178C155.968 39.9768 156.604 41.3309 158.113 42.8407C159.612 44.4261 161.411 45.8325 163.423 47.1993C163.116 44.9735 162.141 43.0937 160.642 41.5082Z" fill="url(#paint14_linear)"/>
<path fill-rule="evenodd" clip-rule="evenodd" d="M163.703 50.5836C162.639 48.8432 161.356 47.6839 159.91 47.1933C159.492 48.2044 159.782 49.5742 160.912 51.3267C161.976 53.0672 163.386 54.7919 165.076 56.4889C165.24 54.347 164.767 52.3241 163.703 50.5836Z" fill="#F4D35E"/>
<path fill-rule="evenodd" clip-rule="evenodd" d="M163.703 50.5836C162.639 48.8432 161.356 47.6839 159.91 47.1933C159.492 48.2044 159.782 49.5742 160.912 51.3267C161.976 53.0672 163.386 54.7919 165.076 56.4889C165.24 54.347 164.767 52.3241 163.703 50.5836Z" fill="url(#paint15_linear)"/>
<path fill-rule="evenodd" clip-rule="evenodd" d="M163.109 59.7049C162.558 57.7457 161.643 56.4194 160.373 55.6503C159.641 56.4502 159.584 57.8357 160.068 59.7829C160.551 61.7301 161.449 63.6736 162.625 65.5893C163.517 63.6548 163.66 61.6641 163.109 59.7049Z" fill="#F4D35E"/>
<path fill-rule="evenodd" clip-rule="evenodd" d="M163.109 59.7049C162.558 57.7457 161.643 56.4194 160.373 55.6503C159.641 56.4502 159.584 57.8357 160.068 59.7829C160.551 61.7301 161.449 63.6736 162.625 65.5893C163.517 63.6548 163.66 61.6641 163.109 59.7049Z" fill="url(#paint16_linear)"/>
<path fill-rule="evenodd" clip-rule="evenodd" d="M160.548 69.096C160.545 67.157 159.998 65.6636 158.962 64.7035C157.982 65.3042 157.522 66.6178 157.524 68.5568C157.527 70.4958 157.855 72.5703 158.463 74.6172C159.871 72.9298 160.551 71.0349 160.548 69.096Z" fill="#F4D35E"/>
<path fill-rule="evenodd" clip-rule="evenodd" d="M160.548 69.096C160.545 67.157 159.998 65.6636 158.962 64.7035C157.982 65.3042 157.522 66.6178 157.524 68.5568C157.527 70.4958 157.855 72.5703 158.463 74.6172C159.871 72.9298 160.551 71.0349 160.548 69.096Z" fill="url(#paint17_linear)"/>
<path fill-rule="evenodd" clip-rule="evenodd" d="M155.346 76.6978C155.814 74.8427 155.68 73.3456 154.955 72.1309C153.863 72.5563 153.01 73.7224 152.542 75.5775C152.075 77.4327 151.798 79.3994 151.903 81.5893C153.682 80.2007 154.878 78.553 155.346 76.6978Z" fill="#F4D35E"/>
<path fill-rule="evenodd" clip-rule="evenodd" d="M155.346 76.6978C155.814 74.8427 155.68 73.3456 154.955 72.1309C153.863 72.5563 153.01 73.7224 152.542 75.5775C152.075 77.4327 151.798 79.3994 151.903 81.5893C153.682 80.2007 154.878 78.553 155.346 76.6978Z" fill="url(#paint18_linear)"/>
<path fill-rule="evenodd" clip-rule="evenodd" d="M147.577 83.4543C148.504 81.7586 148.717 80.2458 148.272 79.0033C147.077 79.1779 145.976 80.1448 145.049 81.8404C144.122 83.536 143.442 85.4308 142.942 87.5129C145.082 86.4988 146.65 85.1499 147.577 83.4543Z" fill="#F4D35E"/>
<path fill-rule="evenodd" clip-rule="evenodd" d="M147.577 83.4543C148.504 81.7586 148.717 80.2458 148.272 79.0033C147.077 79.1779 145.976 80.1448 145.049 81.8404C144.122 83.536 143.442 85.4308 142.942 87.5129C145.082 86.4988 146.65 85.1499 147.577 83.4543Z" fill="url(#paint19_linear)"/>
<path fill-rule="evenodd" clip-rule="evenodd" d="M138.14 88.3623C139.516 86.9018 140.054 85.5245 139.888 84.2543C138.647 84.2656 137.31 84.9576 136.001 86.4301C134.692 87.9025 133.496 89.5502 132.604 91.4848C134.903 90.8091 136.763 89.8227 138.14 88.3623Z" fill="#F4D35E"/>
<path fill-rule="evenodd" clip-rule="evenodd" d="M138.14 88.3623C139.516 86.9018 140.054 85.5245 139.888 84.2543C138.647 84.2656 137.31 84.9576 136.001 86.4301C134.692 87.9025 133.496 89.5502 132.604 91.4848C134.903 90.8091 136.763 89.8227 138.14 88.3623Z" fill="url(#paint20_linear)"/>
<path fill-rule="evenodd" clip-rule="evenodd" d="M127.437 90.0208C129.118 88.8472 130.048 87.6174 130.151 86.3951C128.875 86.1675 127.435 86.6087 125.766 87.7067C124.085 88.8803 122.518 90.2292 121.177 91.9286C123.603 91.8184 125.69 91.1825 127.437 90.0208Z" fill="#F4D35E"/>
<path fill-rule="evenodd" clip-rule="evenodd" d="M127.437 90.0208C129.118 88.8472 130.048 87.6174 130.151 86.3951C128.875 86.1675 127.435 86.6087 125.766 87.7067C124.085 88.8803 122.518 90.2292 121.177 91.9286C123.603 91.8184 125.69 91.1825 127.437 90.0208Z" fill="url(#paint21_linear)"/>
<path fill-rule="evenodd" clip-rule="evenodd" d="M167.418 72.6471C169.275 71.1949 170.237 69.7382 170.316 68.2014C168.838 67.9378 167.165 68.57 165.308 70.0222C163.45 71.4745 161.763 73.1896 160.245 75.1676C163.173 74.9143 165.56 74.0994 167.418 72.6471Z" fill="#F4D35E"/>
<path fill-rule="evenodd" clip-rule="evenodd" d="M167.418 72.6471C169.275 71.1949 170.237 69.7382 170.316 68.2014C168.838 67.9378 167.165 68.57 165.308 70.0222C163.45 71.4745 161.763 73.1896 160.245 75.1676C163.173 74.9143 165.56 74.0994 167.418 72.6471Z" fill="url(#paint22_linear)"/>
<path fill-rule="evenodd" clip-rule="evenodd" d="M43.9 98.0479C41.3469 98.5031 39.324 98.3211 37.9656 97.4777C38.7679 96.3266 40.4509 95.5613 43.0712 95.094C45.6243 94.6388 48.3544 94.4621 51.1942 94.576C48.9105 96.4565 46.5203 97.5806 43.9 98.0479Z" fill="#F4D35E"/>
<path fill-rule="evenodd" clip-rule="evenodd" d="M43.9 98.0479C41.3469 98.5031 39.324 98.3211 37.9656 97.4777C38.7679 96.3266 40.4509 95.5613 43.0712 95.094C45.6243 94.6388 48.3544 94.4621 51.1942 94.576C48.9105 96.4565 46.5203 97.5806 43.9 98.0479Z" fill="url(#paint23_linear)"/>
<path fill-rule="evenodd" clip-rule="evenodd" d="M30.9598 95.1602C28.3993 95.074 26.5248 94.4778 25.4704 93.3476C26.5734 92.3755 28.3768 91.9764 30.9372 92.0626C33.4976 92.1488 36.1678 92.5256 38.824 93.2926C36.1864 94.6159 33.5202 95.2464 30.9598 95.1602Z" fill="#F4D35E"/>
<path fill-rule="evenodd" clip-rule="evenodd" d="M30.9598 95.1602C28.3993 95.074 26.5248 94.4778 25.4704 93.3476C26.5734 92.3755 28.3768 91.9764 30.9372 92.0626C33.4976 92.1488 36.1678 92.5256 38.824 93.2926C36.1864 94.6159 33.5202 95.2464 30.9598 95.1602Z" fill="url(#paint24_linear)"/>
<path fill-rule="evenodd" clip-rule="evenodd" d="M19.7254 89.7196C17.2461 89.2312 15.6084 88.3601 14.7449 87.1184C15.947 86.3612 17.8495 86.1771 20.3288 86.6655C22.808 87.1539 25.2627 87.9568 27.6927 89.0743C24.8675 90.0433 22.2046 90.208 19.7254 89.7196Z" fill="#F4D35E"/>
<path fill-rule="evenodd" clip-rule="evenodd" d="M19.7254 89.7196C17.2461 89.2312 15.6084 88.3601 14.7449 87.1184C15.947 86.3612 17.8495 86.1771 20.3288 86.6655C22.808 87.1539 25.2627 87.9568 27.6927 89.0743C24.8675 90.0433 22.2046 90.208 19.7254 89.7196Z" fill="url(#paint25_linear)"/>
<path fill-rule="evenodd" clip-rule="evenodd" d="M10.7638 82.3229C8.54603 81.2451 7.26884 79.9995 6.86509 78.5983C8.2441 78.1198 10.0761 78.4134 12.2833 79.4155C14.5011 80.4933 16.5492 81.834 18.5728 83.4892C15.574 83.7138 12.971 83.325 10.7638 82.3229Z" fill="#F4D35E"/>
<path fill-rule="evenodd" clip-rule="evenodd" d="M10.7638 82.3229C8.54603 81.2451 7.26884 79.9995 6.86509 78.5983C8.2441 78.1198 10.0761 78.4134 12.2833 79.4155C14.5011 80.4933 16.5492 81.834 18.5728 83.4892C15.574 83.7138 12.971 83.325 10.7638 82.3229Z" fill="url(#paint26_linear)"/>
<path fill-rule="evenodd" clip-rule="evenodd" d="M1.44434 62.5836C0.272947 60.6214 -0.0283532 58.9692 0.451974 57.4879C1.85957 57.7021 3.17202 58.7087 4.34341 60.671C5.51481 62.6332 6.43874 64.7947 7.04801 67.1673C4.47299 65.9981 2.61574 64.5459 1.44434 62.5836Z" fill="#F4D35E"/>
<path fill-rule="evenodd" clip-rule="evenodd" d="M1.44434 62.5836C0.272947 60.6214 -0.0283532 58.9692 0.451974 57.4879C1.85957 57.7021 3.17202 58.7087 4.34341 60.671C5.51481 62.6332 6.43874 64.7947 7.04801 67.1673C4.47299 65.9981 2.61574 64.5459 1.44434 62.5836Z" fill="url(#paint27_linear)"/>
<path fill-rule="evenodd" clip-rule="evenodd" d="M0.976352 51.4236C0.399002 49.2779 0.557375 47.4663 1.47275 46.1399C2.77789 46.6051 3.72978 47.9861 4.30713 50.1318C4.88448 52.2776 5.14718 54.6345 5.08458 57.1269C2.85947 55.5076 1.5537 53.5694 0.976352 51.4236Z" fill="#F4D35E"/>
<path fill-rule="evenodd" clip-rule="evenodd" d="M0.976352 51.4236C0.399002 49.2779 0.557375 47.4663 1.47275 46.1399C2.77789 46.6051 3.72978 47.9861 4.30713 50.1318C4.88448 52.2776 5.14718 54.6345 5.08458 57.1269C2.85947 55.5076 1.5537 53.5694 0.976352 51.4236Z" fill="url(#paint28_linear)"/>
<path fill-rule="evenodd" clip-rule="evenodd" d="M3.44738 40.5927C3.47472 38.3391 4.0575 36.6069 5.27355 35.4596C6.40905 36.1876 6.96846 37.7162 6.94113 39.9697C6.91379 42.2232 6.56116 44.6123 5.87259 47.0613C4.2096 45.0316 3.42005 42.8462 3.44738 40.5927Z" fill="#F4D35E"/>
<path fill-rule="evenodd" clip-rule="evenodd" d="M3.44738 40.5927C3.47472 38.3391 4.0575 36.6069 5.27355 35.4596C6.40905 36.1876 6.96846 37.7162 6.94113 39.9697C6.91379 42.2232 6.56116 44.6123 5.87259 47.0613C4.2096 45.0316 3.42005 42.8462 3.44738 40.5927Z" fill="url(#paint29_linear)"/>
<path fill-rule="evenodd" clip-rule="evenodd" d="M8.88225 31.2492C9.45773 28.9755 10.4084 27.4103 11.8579 26.4539C12.7459 27.3811 12.9022 28.9816 12.3939 31.2434C11.8856 33.5051 10.9636 35.7631 9.63842 38.093C8.61538 35.7166 8.29613 33.4473 8.88225 31.2492Z" fill="#F4D35E"/>
<path fill-rule="evenodd" clip-rule="evenodd" d="M8.88225 31.2492C9.45773 28.9755 10.4084 27.4103 11.8579 26.4539C12.7459 27.3811 12.9022 28.9816 12.3939 31.2434C11.8856 33.5051 10.9636 35.7631 9.63842 38.093C8.61538 35.7166 8.29613 33.4473 8.88225 31.2492Z" fill="url(#paint30_linear)"/>
<path fill-rule="evenodd" clip-rule="evenodd" d="M15.8668 22.6375C16.9445 20.5069 18.3302 19.0967 19.9673 18.4946C20.6079 19.621 20.3504 21.2177 19.2055 23.3604C18.1278 25.4911 16.6363 27.618 14.7876 29.6535C14.4258 27.0817 14.7219 24.7802 15.8668 22.6375Z" fill="#F4D35E"/>
<path fill-rule="evenodd" clip-rule="evenodd" d="M15.8668 22.6375C16.9445 20.5069 18.3302 19.0967 19.9673 18.4946C20.6079 19.621 20.3504 21.2177 19.2055 23.3604C18.1278 25.4911 16.6363 27.618 14.7876 29.6535C14.4258 27.0817 14.7219 24.7802 15.8668 22.6375Z" fill="url(#paint31_linear)"/>
<path fill-rule="evenodd" clip-rule="evenodd" d="M24.8281 19.2638C26.9637 17.7945 28.8585 17.0664 30.5904 17.143C30.4908 18.4017 29.3732 19.7657 27.2481 21.3106C25.1231 22.8555 22.7438 24.0584 20.0852 25.2339C21.1115 22.7231 22.6925 20.7331 24.8281 19.2638Z" fill="#F4D35E"/>
<path fill-rule="evenodd" clip-rule="evenodd" d="M24.8281 19.2638C26.9637 17.7945 28.8585 17.0664 30.5904 17.143C30.4908 18.4017 29.3732 19.7657 27.2481 21.3106C25.1231 22.8555 22.7438 24.0584 20.0852 25.2339C21.1115 22.7231 22.6925 20.7331 24.8281 19.2638Z" fill="url(#paint32_linear)"/>
<path fill-rule="evenodd" clip-rule="evenodd" d="M20.6251 26.5965C22.6121 25.5444 24.359 25.2329 25.7772 25.5228C25.5124 26.578 24.3529 27.6377 22.3659 28.6899C20.3788 29.7421 18.1477 30.5276 15.7609 31.1858C16.9836 29.1068 18.638 27.6487 20.6251 26.5965Z" fill="#F4D35E"/>
<path fill-rule="evenodd" clip-rule="evenodd" d="M20.6251 26.5965C22.6121 25.5444 24.359 25.2329 25.7772 25.5228C25.5124 26.578 24.3529 27.6377 22.3659 28.6899C20.3788 29.7421 18.1477 30.5276 15.7609 31.1858C16.9836 29.1068 18.638 27.6487 20.6251 26.5965Z" fill="url(#paint33_linear)"/>
<path fill-rule="evenodd" clip-rule="evenodd" d="M15.1534 33.2326C16.8963 31.9138 18.5228 31.2361 19.9656 31.2114C19.913 32.3063 19.0542 33.5451 17.3113 34.8639C15.5684 36.1827 13.6027 37.3861 11.3469 38.4863C12.1452 36.3279 13.4211 34.6271 15.1534 33.2326Z" fill="#F4D35E"/>
<path fill-rule="evenodd" clip-rule="evenodd" d="M15.1534 33.2326C16.8963 31.9138 18.5228 31.2361 19.9656 31.2114C19.913 32.3063 19.0542 33.5451 17.3113 34.8639C15.5684 36.1827 13.6027 37.3861 11.3469 38.4863C12.1452 36.3279 13.4211 34.6271 15.1534 33.2326Z" fill="url(#paint34_linear)"/>
<path fill-rule="evenodd" clip-rule="evenodd" d="M11.292 41.5202C12.7907 39.9348 14.2616 39.1297 15.8175 38.9298C15.9665 39.9888 15.3305 41.3428 13.8211 42.8526C12.3223 44.4381 10.5228 45.8445 8.51119 47.2112C8.88511 44.9734 9.79318 43.1056 11.292 41.5202Z" fill="#F4D35E"/>
<path fill-rule="evenodd" clip-rule="evenodd" d="M11.292 41.5202C12.7907 39.9348 14.2616 39.1297 15.8175 38.9298C15.9665 39.9888 15.3305 41.3428 13.8211 42.8526C12.3223 44.4381 10.5228 45.8445 8.51119 47.2112C8.88511 44.9734 9.79318 43.1056 11.292 41.5202Z" fill="url(#paint35_linear)"/>
<path fill-rule="evenodd" clip-rule="evenodd" d="M8.29655 50.5836C9.36028 48.8432 10.6435 47.6839 12.0897 47.1933C12.5074 48.2044 12.218 49.5742 11.0871 51.3267C10.0234 53.0672 8.61307 54.7919 6.92337 56.4889C6.75979 54.347 7.23281 52.3241 8.29655 50.5836Z" fill="#F4D35E"/>
<path fill-rule="evenodd" clip-rule="evenodd" d="M8.29655 50.5836C9.36028 48.8432 10.6435 47.6839 12.0897 47.1933C12.5074 48.2044 12.218 49.5742 11.0871 51.3267C10.0234 53.0672 8.61307 54.7919 6.92337 56.4889C6.75979 54.347 7.23281 52.3241 8.29655 50.5836Z" fill="url(#paint36_linear)"/>
<path fill-rule="evenodd" clip-rule="evenodd" d="M8.82326 59.7169C9.37412 57.7577 10.2895 56.4314 11.5587 55.6623C12.2911 56.4622 12.3483 57.8477 11.8646 59.7949C11.3138 61.7541 10.4835 63.6856 9.30672 65.6013C8.4819 63.6548 8.3396 61.6641 8.82326 59.7169Z" fill="#F4D35E"/>
<path fill-rule="evenodd" clip-rule="evenodd" d="M8.82326 59.7169C9.37412 57.7577 10.2895 56.4314 11.5587 55.6623C12.2911 56.4622 12.3483 57.8477 11.8646 59.7949C11.3138 61.7541 10.4835 63.6856 9.30672 65.6013C8.4819 63.6548 8.3396 61.6641 8.82326 59.7169Z" fill="url(#paint37_linear)"/>
<path fill-rule="evenodd" clip-rule="evenodd" d="M11.3848 69.108C11.3875 67.169 11.935 65.6756 12.9708 64.7155C13.9506 65.3162 14.4109 66.6299 14.4082 68.5688C14.4055 70.5078 14.0775 72.5824 13.4701 74.6292C12.129 72.9298 11.3821 71.047 11.3848 69.108Z" fill="#F4D35E"/>
<path fill-rule="evenodd" clip-rule="evenodd" d="M11.3848 69.108C11.3875 67.169 11.935 65.6756 12.9708 64.7155C13.9506 65.3162 14.4109 66.6299 14.4082 68.5688C14.4055 70.5078 14.0775 72.5824 13.4701 74.6292C12.129 72.9298 11.3821 71.047 11.3848 69.108Z" fill="url(#paint38_linear)"/>
<path fill-rule="evenodd" clip-rule="evenodd" d="M16.6535 76.6978C16.1859 74.8427 16.3196 73.3456 17.0441 72.1309C18.137 72.5563 18.9898 73.7224 19.4574 75.5775C19.925 77.4327 20.2017 79.3994 20.0965 81.5893C18.3171 80.2007 17.1211 78.553 16.6535 76.6978Z" fill="#F4D35E"/>
<path fill-rule="evenodd" clip-rule="evenodd" d="M16.6535 76.6978C16.1859 74.8427 16.3196 73.3456 17.0441 72.1309C18.137 72.5563 18.9898 73.7224 19.4574 75.5775C19.925 77.4327 20.2017 79.3994 20.0965 81.5893C18.3171 80.2007 17.1211 78.553 16.6535 76.6978Z" fill="url(#paint39_linear)"/>
<path fill-rule="evenodd" clip-rule="evenodd" d="M24.4222 83.4543C23.4949 81.7586 23.2821 80.2458 23.7272 79.0033C24.9226 79.1779 26.0228 80.1448 26.9501 81.8404C27.8773 83.536 28.5571 85.4308 29.0567 87.5129C26.9167 86.4988 25.3495 85.1499 24.4222 83.4543Z" fill="#F4D35E"/>
<path fill-rule="evenodd" clip-rule="evenodd" d="M24.4222 83.4543C23.4949 81.7586 23.2821 80.2458 23.7272 79.0033C24.9226 79.1779 26.0228 80.1448 26.9501 81.8404C27.8773 83.536 28.5571 85.4308 29.0567 87.5129C26.9167 86.4988 25.3495 85.1499 24.4222 83.4543Z" fill="url(#paint40_linear)"/>
<path fill-rule="evenodd" clip-rule="evenodd" d="M33.8594 88.3623C32.4831 86.9018 31.945 85.5245 32.1107 84.2543C33.352 84.2656 34.689 84.9576 35.9981 86.4301C37.3744 87.8906 38.5033 89.5502 39.3953 91.4848C37.0963 90.8091 35.2357 89.8227 33.8594 88.3623Z" fill="#F4D35E"/>
<path fill-rule="evenodd" clip-rule="evenodd" d="M33.8594 88.3623C32.4831 86.9018 31.945 85.5245 32.1107 84.2543C33.352 84.2656 34.689 84.9576 35.9981 86.4301C37.3744 87.8906 38.5033 89.5502 39.3953 91.4848C37.0963 90.8091 35.2357 89.8227 33.8594 88.3623Z" fill="url(#paint41_linear)"/>
<path fill-rule="evenodd" clip-rule="evenodd" d="M44.5723 90.0964C42.892 88.9228 41.9614 87.693 41.8583 86.4707C43.1349 86.2431 44.5744 86.6843 46.2441 87.7823C47.9244 88.9559 49.4916 90.3048 50.8326 92.0042C48.3959 91.8184 46.242 91.1944 44.5723 90.0964Z" fill="#F4D35E"/>
<path fill-rule="evenodd" clip-rule="evenodd" d="M44.5723 90.0964C42.892 88.9228 41.9614 87.693 41.8583 86.4707C43.1349 86.2431 44.5744 86.6843 46.2441 87.7823C47.9244 88.9559 49.4916 90.3048 50.8326 92.0042C48.3959 91.8184 46.242 91.1944 44.5723 90.0964Z" fill="url(#paint42_linear)"/>
<path fill-rule="evenodd" clip-rule="evenodd" d="M4.51496 72.6591C2.65772 71.2069 1.69518 69.7502 1.61673 68.2133C3.09485 67.9498 4.76786 68.5819 6.62511 70.0342C8.48235 71.4864 10.17 73.2015 11.6879 75.1795C8.75966 74.9263 6.4394 74.0994 4.51496 72.6591Z" fill="#F4D35E"/>
<path fill-rule="evenodd" clip-rule="evenodd" d="M4.51496 72.6591C2.65772 71.2069 1.69518 69.7502 1.61673 68.2133C3.09485 67.9498 4.76786 68.5819 6.62511 70.0342C8.48235 71.4864 10.17 73.2015 11.6879 75.1795C8.75966 74.9263 6.4394 74.0994 4.51496 72.6591Z" fill="url(#paint43_linear)"/>
<defs>
<linearGradient id="paint0_linear" x1="101.801" y1="12.3957" x2="74.4007" y2="12.3957" gradientUnits="userSpaceOnUse">
<stop stop-color="#FFA800"/>
<stop offset="0.546631" stop-color="#FFD88B" stop-opacity="0.453369"/>
<stop offset="0.685126" stop-color="#FFE4AF" stop-opacity="0.314874"/>
<stop offset="1" stop-color="white" stop-opacity="0"/>
</linearGradient>
<linearGradient id="paint1_linear" x1="101.401" y1="15.5772" x2="74.8007" y2="15.5772" gradientUnits="userSpaceOnUse">
<stop stop-color="#FFA800"/>
<stop offset="1" stop-color="white" stop-opacity="0"/>
</linearGradient>
<linearGradient id="paint2_linear" x1="127.517" y1="94.8425" x2="126.981" y2="97.8485" gradientUnits="userSpaceOnUse">
<stop stop-color="#FFA800"/>
<stop offset="1" stop-color="#F4D35E"/>
</linearGradient>
<linearGradient id="paint3_linear" x1="140.103" y1="91.5416" x2="139.452" y2="95.1936" gradientUnits="userSpaceOnUse">
<stop stop-color="#FFA800"/>
<stop offset="1" stop-color="#F4D35E"/>
</linearGradient>
<linearGradient id="paint4_linear" x1="151.116" y1="85.7116" x2="150.288" y2="90.3546" gradientUnits="userSpaceOnUse">
<stop stop-color="#FFA800"/>
<stop offset="1" stop-color="#F4D35E"/>
</linearGradient>
<linearGradient id="paint5_linear" x1="159.766" y1="77.5932" x2="158.552" y2="84.4031" gradientUnits="userSpaceOnUse">
<stop stop-color="#FFA800"/>
<stop offset="1" stop-color="#F4D35E"/>
</linearGradient>
<linearGradient id="paint6_linear" x1="169.221" y1="57.0729" x2="167.345" y2="67.594" gradientUnits="userSpaceOnUse">
<stop stop-color="#FFA800"/>
<stop offset="1" stop-color="#F4D35E"/>
</linearGradient>
<linearGradient id="paint7_linear" x1="169.983" y1="46.043" x2="167.973" y2="57.3156" gradientUnits="userSpaceOnUse">
<stop stop-color="#FFA800"/>
<stop offset="1" stop-color="#F4D35E"/>
</linearGradient>
<linearGradient id="paint8_linear" x1="167.455" y1="35.5894" x2="165.431" y2="46.9372" gradientUnits="userSpaceOnUse">
<stop stop-color="#FFA800"/>
<stop offset="1" stop-color="#F4D35E"/>
</linearGradient>
<linearGradient id="paint9_linear" x1="162.005" y1="26.7086" x2="160.062" y2="37.6055" gradientUnits="userSpaceOnUse">
<stop stop-color="#FFA800"/>
<stop offset="1" stop-color="#F4D35E"/>
</linearGradient>
<linearGradient id="paint10_linear" x1="155.237" y1="19.0659" x2="153.468" y2="28.9858" gradientUnits="userSpaceOnUse">
<stop stop-color="#FFA800"/>
<stop offset="1" stop-color="#F4D35E"/>
</linearGradient>
<linearGradient id="paint11_linear" x1="147.105" y1="18.0195" x2="146" y2="24.1713" gradientUnits="userSpaceOnUse">
<stop stop-color="#FFA800"/>
<stop offset="1" stop-color="#F4D35E"/>
</linearGradient>
<linearGradient id="paint12_linear" x1="151.55" y1="26.0832" x2="150.813" y2="30.2183" gradientUnits="userSpaceOnUse">
<stop stop-color="#FFA800"/>
<stop offset="1" stop-color="#F4D35E"/>
</linearGradient>
<linearGradient id="paint13_linear" x1="156.746" y1="31.9862" x2="155.743" y2="37.6108" gradientUnits="userSpaceOnUse">
<stop stop-color="#FFA800"/>
<stop offset="1" stop-color="#F4D35E"/>
</linearGradient>
<linearGradient id="paint14_linear" x1="160.25" y1="39.6476" x2="159.042" y2="46.4181" gradientUnits="userSpaceOnUse">
<stop stop-color="#FFA800"/>
<stop offset="1" stop-color="#F4D35E"/>
</linearGradient>
<linearGradient id="paint15_linear" x1="163.031" y1="47.75" x2="161.584" y2="55.8662" gradientUnits="userSpaceOnUse">
<stop stop-color="#FFA800"/>
<stop offset="1" stop-color="#F4D35E"/>
</linearGradient>
<linearGradient id="paint16_linear" x1="162.151" y1="55.9673" x2="160.503" y2="65.2109" gradientUnits="userSpaceOnUse">
<stop stop-color="#FFA800"/>
<stop offset="1" stop-color="#F4D35E"/>
</linearGradient>
<linearGradient id="paint17_linear" x1="159.59" y1="64.8156" x2="157.862" y2="74.51" gradientUnits="userSpaceOnUse">
<stop stop-color="#FFA800"/>
<stop offset="1" stop-color="#F4D35E"/>
</linearGradient>
<linearGradient id="paint18_linear" x1="154.481" y1="72.0462" x2="152.752" y2="81.7407" gradientUnits="userSpaceOnUse">
<stop stop-color="#FFA800"/>
<stop offset="1" stop-color="#F4D35E"/>
</linearGradient>
<linearGradient id="paint19_linear" x1="146.479" y1="78.6836" x2="144.844" y2="87.852" gradientUnits="userSpaceOnUse">
<stop stop-color="#FFA800"/>
<stop offset="1" stop-color="#F4D35E"/>
</linearGradient>
<linearGradient id="paint20_linear" x1="136.893" y1="83.7202" x2="135.419" y2="91.9868" gradientUnits="userSpaceOnUse">
<stop stop-color="#FFA800"/>
<stop offset="1" stop-color="#F4D35E"/>
</linearGradient>
<linearGradient id="paint21_linear" x1="126.156" y1="85.6826" x2="124.923" y2="92.5965" gradientUnits="userSpaceOnUse">
<stop stop-color="#FFA800"/>
<stop offset="1" stop-color="#F4D35E"/>
</linearGradient>
<linearGradient id="paint22_linear" x1="165.889" y1="67.412" x2="164.375" y2="75.9041" gradientUnits="userSpaceOnUse">
<stop stop-color="#FFA800"/>
<stop offset="1" stop-color="#F4D35E"/>
</linearGradient>
<linearGradient id="paint23_linear" x1="44.415" y1="94.8544" x2="44.951" y2="97.8604" gradientUnits="userSpaceOnUse">
<stop stop-color="#FFA800"/>
<stop offset="1" stop-color="#F4D35E"/>
</linearGradient>
<linearGradient id="paint24_linear" x1="31.897" y1="91.5415" x2="32.5482" y2="95.1936" gradientUnits="userSpaceOnUse">
<stop stop-color="#FFA800"/>
<stop offset="1" stop-color="#F4D35E"/>
</linearGradient>
<linearGradient id="paint25_linear" x1="20.8833" y1="85.7116" x2="21.7113" y2="90.3546" gradientUnits="userSpaceOnUse">
<stop stop-color="#FFA800"/>
<stop offset="1" stop-color="#F4D35E"/>
</linearGradient>
<linearGradient id="paint26_linear" x1="12.2335" y1="77.5932" x2="13.4478" y2="84.4031" gradientUnits="userSpaceOnUse">
<stop stop-color="#FFA800"/>
<stop offset="1" stop-color="#F4D35E"/>
</linearGradient>
<linearGradient id="paint27_linear" x1="2.77911" y1="57.0729" x2="4.6552" y2="67.594" gradientUnits="userSpaceOnUse">
<stop stop-color="#FFA800"/>
<stop offset="1" stop-color="#F4D35E"/>
</linearGradient>
<linearGradient id="paint28_linear" x1="2.01697" y1="46.0429" x2="4.02706" y2="57.3155" gradientUnits="userSpaceOnUse">
<stop stop-color="#FFA800"/>
<stop offset="1" stop-color="#F4D35E"/>
</linearGradient>
<linearGradient id="paint29_linear" x1="4.54528" y1="35.5894" x2="6.56878" y2="46.9372" gradientUnits="userSpaceOnUse">
<stop stop-color="#FFA800"/>
<stop offset="1" stop-color="#F4D35E"/>
</linearGradient>
<linearGradient id="paint30_linear" x1="9.99345" y1="26.7864" x2="11.9365" y2="37.6832" gradientUnits="userSpaceOnUse">
<stop stop-color="#FFA800"/>
<stop offset="1" stop-color="#F4D35E"/>
</linearGradient>
<linearGradient id="paint31_linear" x1="16.7633" y1="19.0659" x2="18.5322" y2="28.9858" gradientUnits="userSpaceOnUse">
<stop stop-color="#FFA800"/>
<stop offset="1" stop-color="#F4D35E"/>
</linearGradient>
<linearGradient id="paint32_linear" x1="24.8953" y1="18.0195" x2="26.0004" y2="24.1713" gradientUnits="userSpaceOnUse">
<stop stop-color="#FFA800"/>
<stop offset="1" stop-color="#F4D35E"/>
</linearGradient>
<linearGradient id="paint33_linear" x1="20.4495" y1="26.0832" x2="21.1869" y2="30.2183" gradientUnits="userSpaceOnUse">
<stop stop-color="#FFA800"/>
<stop offset="1" stop-color="#F4D35E"/>
</linearGradient>
<linearGradient id="paint34_linear" x1="15.2535" y1="31.9862" x2="16.2565" y2="37.6108" gradientUnits="userSpaceOnUse">
<stop stop-color="#FFA800"/>
<stop offset="1" stop-color="#F4D35E"/>
</linearGradient>
<linearGradient id="paint35_linear" x1="11.6845" y1="39.6595" x2="12.8918" y2="46.4301" gradientUnits="userSpaceOnUse">
<stop stop-color="#FFA800"/>
<stop offset="1" stop-color="#F4D35E"/>
</linearGradient>
<linearGradient id="paint36_linear" x1="8.96816" y1="47.75" x2="10.4154" y2="55.8663" gradientUnits="userSpaceOnUse">
<stop stop-color="#FFA800"/>
<stop offset="1" stop-color="#F4D35E"/>
</linearGradient>
<linearGradient id="paint37_linear" x1="9.80522" y1="55.9749" x2="11.4535" y2="65.2185" gradientUnits="userSpaceOnUse">
<stop stop-color="#FFA800"/>
<stop offset="1" stop-color="#F4D35E"/>
</linearGradient>
<linearGradient id="paint38_linear" x1="12.3453" y1="64.8271" x2="14.074" y2="74.5215" gradientUnits="userSpaceOnUse">
<stop stop-color="#FFA800"/>
<stop offset="1" stop-color="#F4D35E"/>
</linearGradient>
<linearGradient id="paint39_linear" x1="17.5187" y1="72.0462" x2="19.2473" y2="81.7407" gradientUnits="userSpaceOnUse">
<stop stop-color="#FFA800"/>
<stop offset="1" stop-color="#F4D35E"/>
</linearGradient>
<linearGradient id="paint40_linear" x1="25.5201" y1="78.6836" x2="27.1549" y2="87.852" gradientUnits="userSpaceOnUse">
<stop stop-color="#FFA800"/>
<stop offset="1" stop-color="#F4D35E"/>
</linearGradient>
<linearGradient id="paint41_linear" x1="35.1057" y1="83.7202" x2="36.5798" y2="91.9868" gradientUnits="userSpaceOnUse">
<stop stop-color="#FFA800"/>
<stop offset="1" stop-color="#F4D35E"/>
</linearGradient>
<linearGradient id="paint42_linear" x1="45.8539" y1="85.7583" x2="47.0867" y2="92.6721" gradientUnits="userSpaceOnUse">
<stop stop-color="#FFA800"/>
<stop offset="1" stop-color="#F4D35E"/>
</linearGradient>
<linearGradient id="paint43_linear" x1="6.04334" y1="67.424" x2="7.55761" y2="75.916" gradientUnits="userSpaceOnUse">
<stop stop-color="#FFA800"/>
<stop offset="1" stop-color="#F4D35E"/>
</linearGradient>
<clipPath id="clip0">
<rect width="20" height="15.8824" fill="white" transform="translate(77.0007)"/>
</clipPath>
</defs>
</svg>
