<svg xmlns="http://www.w3.org/2000/svg" viewBox="0 0 243.78 36.86"><defs><style>.cls-1{fill:#f9627d;}.cls-2{fill:#5cccb8;}.cls-3{fill:#5d576b;}</style></defs><g id="レイヤー_2" data-name="レイヤー 2"><g id="レイヤー_1-2" data-name="レイヤー 1"><g id="logomark"><path class="cls-1" d="M32.2,2.15A2.33,2.33,0,0,0,29.76,0H2.5A2.34,2.34,0,0,0,0,2.15H0V8.5a2.36,2.36,0,0,1,2.48-2,2.62,2.62,0,0,1,2,.86h0l0,0,9.56,10.89h0a2.69,2.69,0,0,0,4.09,0h0L31.6,3.56h0A2,2,0,0,0,32.2,2.15Z"/><path class="cls-2" d="M29.86,14.65a2.67,2.67,0,0,0-1.92.65l-.21.23-.09.12-9.4,12h0a2.56,2.56,0,0,1-2.1,1,2.6,2.6,0,0,1-2.1-1h0L4.57,15.59l0,0,0,0h0a2.62,2.62,0,0,0-2-.9A2.41,2.41,0,0,0,.07,16.38a1.85,1.85,0,0,0-.07.41V34.65A2.33,2.33,0,0,0,2.48,36.8H29.72a2.33,2.33,0,0,0,2.48-2.15h0V16.84A2.32,2.32,0,0,0,29.86,14.65Z"/><polygon class="cls-3" points="0.23 7.99 0.27 7.89 0.23 7.88 0.23 7.99"/><path class="cls-3" d="M32.2,16.79h0a2.33,2.33,0,0,0-2.48-2.15,2.57,2.57,0,0,0-2.18,1.14h0L18.28,27.62l0,0v0s-7.78,8.89-12.9,9.18H29.72a2.34,2.34,0,0,0,2.48-2.16h0Z"/></g><g id="logotype"><path id="m" class="cls-3" d="M75.11,36.86a2.31,2.31,0,0,1-1.72-.75,2.51,2.51,0,0,1-.72-1.8V12.42a.53.53,0,0,0-1-.33l-8.1,11.24a2.43,2.43,0,0,1-4,0L51.58,12.1a.52.52,0,0,0-.95.33V34.31a2.45,2.45,0,0,1-.74,1.8,2.42,2.42,0,0,1-3.5,0,2.45,2.45,0,0,1-.75-1.8V3a2.54,2.54,0,0,1,.72-1.8A2.43,2.43,0,0,1,48.19.43a2.32,2.32,0,0,1,2,1l11.07,15.4a.51.51,0,0,0,.84,0L73.17,1.47a2.21,2.21,0,0,1,1.94-1,2.35,2.35,0,0,1,1.8.75,2.56,2.56,0,0,1,.7,1.8V34.31a2.51,2.51,0,0,1-.72,1.8A2.39,2.39,0,0,1,75.11,36.86Z"/><path id="i" class="cls-3" d="M87,36.86a2.34,2.34,0,0,1-1.74-.78,2.53,2.53,0,0,1-.75-1.82v-19a2.61,2.61,0,0,1,.75-1.87A2.34,2.34,0,0,1,87,12.61a2.41,2.41,0,0,1,1.8.78,2.61,2.61,0,0,1,.75,1.87v19a2.53,2.53,0,0,1-.75,1.82,2.41,2.41,0,0,1-1.8.78M89.5,4.23a2.6,2.6,0,0,1-.75,1.87,2.41,2.41,0,0,1-1.8.78,2.34,2.34,0,0,1-1.74-.78,2.6,2.6,0,0,1-.75-1.87,2.55,2.55,0,0,1,.75-1.82A2.34,2.34,0,0,1,87,1.63a2.41,2.41,0,0,1,1.8.78,2.55,2.55,0,0,1,.75,1.82"/><path id="d" class="cls-3" d="M100,25a6.49,6.49,0,0,0,.52,2.6,6.88,6.88,0,0,0,1.42,2.15,6.46,6.46,0,0,0,4.65,1.94,6.59,6.59,0,0,0,2.6-.51,6.47,6.47,0,0,0,2.1-1.43,6.89,6.89,0,0,0,1.9-4.75,6.85,6.85,0,0,0-.51-2.66,6.74,6.74,0,0,0-1.39-2.15,6.86,6.86,0,0,0-2.1-1.45,6.27,6.27,0,0,0-2.6-.54,6.14,6.14,0,0,0-2.55.54,6.86,6.86,0,0,0-2.1,1.45,7,7,0,0,0-1.42,2.15A6.68,6.68,0,0,0,100,25m-5,0a11.81,11.81,0,0,1,.92-4.63,12.48,12.48,0,0,1,2.5-3.8A11.81,11.81,0,0,1,102,14a11,11,0,0,1,4.52-.94,10.2,10.2,0,0,1,3.22.56,15.62,15.62,0,0,1,2.61,1.15.53.53,0,0,0,.77-.48v-11a2.51,2.51,0,0,1,.74-1.79,2.39,2.39,0,0,1,1.75-.77,2.44,2.44,0,0,1,1.8.77,2.48,2.48,0,0,1,.75,1.79V34.31a2.5,2.5,0,0,1-.75,1.79,2.43,2.43,0,0,1-1.8.76,2.2,2.2,0,0,1-1.45-.59,3.93,3.93,0,0,1-.86-1,.52.52,0,0,0-.71-.2,15.52,15.52,0,0,1-2.8,1.26,10.08,10.08,0,0,1-3.27.56,11.11,11.11,0,0,1-4.52-.92,11.49,11.49,0,0,1-3.7-2.53,12.15,12.15,0,0,1-2.5-3.78A11.8,11.8,0,0,1,94.92,25"/><path id="w" class="cls-3" d="M152.36,12.77a2.41,2.41,0,0,1,1.23,1,2.85,2.85,0,0,1,.42,1.49,3.89,3.89,0,0,1-.09.85s0,0,0,.06l-6.38,19a2.62,2.62,0,0,1-.9,1.22,2.43,2.43,0,0,1-1.5.49,2.31,2.31,0,0,1-1.45-.49,2.88,2.88,0,0,1-.94-1.2l0-.05-3.49-10.4a.51.51,0,0,0-1,0c-.14.41-.29.84-.44,1.29-.35,1-.7,2.07-1.05,3.13l-1.05,3.14c-.35,1-.68,2-1,2.87a2.56,2.56,0,0,1-.93,1.22,2.43,2.43,0,0,1-1.47.49,2.39,2.39,0,0,1-1.5-.49,2.62,2.62,0,0,1-.9-1.22l-6.39-19v-.06a3.89,3.89,0,0,1-.09-.85,2.85,2.85,0,0,1,.42-1.52,2.5,2.5,0,0,1,1.19-1l.07,0a3.33,3.33,0,0,1,.86-.1,2.55,2.55,0,0,1,1.45.44,2.27,2.27,0,0,1,.9,1.28l3.5,10.39a.52.52,0,0,0,1,0l3.46-10.39a2.15,2.15,0,0,1,.89-1.3,3.11,3.11,0,0,1,1.43-.47h.25a2.36,2.36,0,0,1,1.32.6,3.57,3.57,0,0,1,.93,1.13s0,.05,0,.08l3.49,10.36a.52.52,0,0,0,1,0l3.5-10.4A2.27,2.27,0,0,1,150,13.1a2.58,2.58,0,0,1,1.42-.44,2,2,0,0,1,.9.11"/><path id="o" class="cls-3" d="M169.19,31.61a6.38,6.38,0,0,0,2.59-.52,6.56,6.56,0,0,0,2.1-1.46,6.68,6.68,0,0,0,1.4-2.19,7.1,7.1,0,0,0,.5-2.65,7.33,7.33,0,0,0-.5-2.71,6.63,6.63,0,0,0-1.4-2.18,6.8,6.8,0,0,0-2.1-1.49,6.23,6.23,0,0,0-2.59-.54,6.11,6.11,0,0,0-2.55.54,6.8,6.8,0,0,0-2.1,1.49,7,7,0,0,0-1.95,4.89,6.74,6.74,0,0,0,.53,2.65,7.07,7.07,0,0,0,1.42,2.19,6.56,6.56,0,0,0,2.1,1.46,6.25,6.25,0,0,0,2.55.52m0-19a10.89,10.89,0,0,1,4.52,1,11.57,11.57,0,0,1,3.69,2.63,12.74,12.74,0,0,1,2.5,3.88,12.39,12.39,0,0,1,0,9.42,12.36,12.36,0,0,1-2.5,3.85,11.58,11.58,0,0,1-3.69,2.58,11.47,11.47,0,0,1-9.05,0A11.58,11.58,0,0,1,161,33.35a12.36,12.36,0,0,1-2.5-3.85,12.39,12.39,0,0,1,0-9.42A12.74,12.74,0,0,1,161,16.2a11.57,11.57,0,0,1,3.69-2.63,10.9,10.9,0,0,1,4.53-1"/><path id="r" class="cls-3" d="M194.93,12.61a2.37,2.37,0,0,1,1.75.78,2.62,2.62,0,0,1,.75,1.88,2.51,2.51,0,0,1-.75,1.84,2.42,2.42,0,0,1-1.75.76,6.84,6.84,0,0,0-1.83.26,2.5,2.5,0,0,0-1.44.94.41.41,0,0,0,0,.09,4.13,4.13,0,0,0-.18.48,1,1,0,0,0-.05.26V34.26a2.53,2.53,0,0,1-.75,1.82,2.41,2.41,0,0,1-1.8.78,2.37,2.37,0,0,1-1.75-.78,2.56,2.56,0,0,1-.74-1.82v-19a2.65,2.65,0,0,1,.74-1.88,2.37,2.37,0,0,1,1.75-.78,2.3,2.3,0,0,1,1,.23,4,4,0,0,1,.65.42.52.52,0,0,0,.5.07,9.77,9.77,0,0,1,1.72-.51,11.47,11.47,0,0,1,2.25-.21"/><path id="k" class="cls-3" d="M221,32.39a2.25,2.25,0,0,1,.55.85,3.22,3.22,0,0,1,.15,1,2.5,2.5,0,0,1-.7,1.82,2.39,2.39,0,0,1-1.8.78,2.14,2.14,0,0,1-1.74-.78l-8.5-8.81a.53.53,0,0,0-.9.39v6.6a2.55,2.55,0,0,1-.75,1.82,2.39,2.39,0,0,1-1.8.78,2.34,2.34,0,0,1-1.74-.78,2.55,2.55,0,0,1-.75-1.82V2.62a2.56,2.56,0,0,1,.75-1.83A2.34,2.34,0,0,1,205.48,0a2.39,2.39,0,0,1,1.8.78A2.56,2.56,0,0,1,208,2.62V21.81a.53.53,0,0,0,.9.39l8.5-8.81a2.28,2.28,0,0,1,1.74-.73,2.67,2.67,0,0,1,1.76.7l.08.07a2.82,2.82,0,0,1,.66,1.83,2.87,2.87,0,0,1-.68,1.86l0,0-7,7.25a.57.57,0,0,0,0,.77Z"/><path id="s" class="cls-3" d="M238.93,22a12.41,12.41,0,0,1,2.38,1.51,7.94,7.94,0,0,1,1.45,1.56,5.69,5.69,0,0,1,.75,1.53,7.94,7.94,0,0,1,.27,1.36v.6a8.8,8.8,0,0,1-.47,2.83,7.06,7.06,0,0,1-1.48,2.48,9.17,9.17,0,0,1-3.17,2.23,10.15,10.15,0,0,1-4,.78,8.94,8.94,0,0,1-4.5-1.17A8.13,8.13,0,0,1,227,32.58l0-.07a3.7,3.7,0,0,1-.33-1.32,2.86,2.86,0,0,1,.3-1.28,2.28,2.28,0,0,1,.94-1,2.83,2.83,0,0,1,1.25-.36,2.38,2.38,0,0,1,1.2.34,2.33,2.33,0,0,1,.95,1,2.92,2.92,0,0,0,1.52,1.3,5.32,5.32,0,0,0,1.83.37,6.17,6.17,0,0,0,2.05-.32,3,3,0,0,0,1.44-1h0a2.64,2.64,0,0,0,.7-1.8.54.54,0,0,0-.11-.37,3,3,0,0,0-.51-.49A11.54,11.54,0,0,0,237,26.9a14.55,14.55,0,0,0-1.42-.73,7,7,0,0,0-1.39-.48l-.12,0-.09,0a14.38,14.38,0,0,1-2.2-.85,8.05,8.05,0,0,1-2.1-1.43,7.17,7.17,0,0,1-1.55-2.11,6.44,6.44,0,0,1-.6-2.88,5.91,5.91,0,0,1,.63-2.71,7.11,7.11,0,0,1,1.72-2.19A8.12,8.12,0,0,1,232.51,12a10.29,10.29,0,0,1,3.28-.51,7.7,7.7,0,0,1,2.39.39,8.34,8.34,0,0,1,2.25,1.06,2.66,2.66,0,0,1,.88,1,2.56,2.56,0,0,1,.32,1.22,2,2,0,0,1-.12.73,6.82,6.82,0,0,1-.33.67h0a2.27,2.27,0,0,1-2.1,1.2,3.14,3.14,0,0,1-1.44-.42l.1.05a4.46,4.46,0,0,0-1-.41,3.9,3.9,0,0,0-1-.16,4.4,4.4,0,0,0-1.45.21,4.68,4.68,0,0,0-1,.47,2,2,0,0,0-.58.52.85.85,0,0,0-.17.37,2.79,2.79,0,0,0,0,.46,1.22,1.22,0,0,0,.3.57,3.18,3.18,0,0,0,.8.66,7.2,7.2,0,0,0,1.55.65l1.45.41a13.81,13.81,0,0,1,2.19.89"/></g></g></g></svg>